<svg width="12" height="12" viewBox="0 0 12 12" fill="none" xmlns="http://www.w3.org/2000/svg">
<path d="M8 3C8.55228 3 9 3.44772 9 4C9 4.55228 8.55228 5 8 5C7.44772 5 7 4.55228 7 4C7 3.44772 7.44772 3 8 3Z" stroke="#776480" stroke-linecap="round" stroke-linejoin="round"/>
<path d="M1.57183 5.58902C1.09032 6.12682 1.07996 6.93816 1.52187 7.50893C2.39881 8.64154 3.35863 9.60135 4.49124 10.4783C5.06199 10.9202 5.87334 10.9098 6.41113 10.4283C7.87119 9.12101 9.20828 7.75479 10.4987 6.25335C10.6263 6.10493 10.7061 5.92301 10.724 5.72808C10.8032 4.86618 10.9659 2.38299 10.2915 1.70863C9.61715 1.03426 7.13396 1.19696 6.27207 1.27616C6.07714 1.29407 5.89522 1.37387 5.74676 1.50144C4.24538 2.79185 2.87915 4.12897 1.57183 5.58902Z" stroke="#776480"/>
<path d="M3.5 7L4.99999 8.5" stroke="#776480" stroke-linecap="round" stroke-linejoin="round"/>
</svg>
